<svg xmlns="http://www.w3.org/2000/svg" viewBox="0 0 512 512" width="512" height="512">
  <defs>
    <linearGradient id="gp-blue" x1="0%" y1="0%" x2="100%" y2="100%">
      <stop offset="0%" stop-color="#00A0FF"/>
      <stop offset="100%" stop-color="#0080FF"/>
    </linearGradient>
    <linearGradient id="gp-green" x1="0%" y1="0%" x2="100%" y2="100%">
      <stop offset="0%" stop-color="#00E676"/>
      <stop offset="100%" stop-color="#00C853"/>
    </linearGradient>
    <linearGradient id="gp-orange" x1="0%" y1="0%" x2="100%" y2="100%">
      <stop offset="0%" stop-color="#FFD600"/>
      <stop offset="100%" stop-color="#FFAB00"/>
    </linearGradient>
    <linearGradient id="gp-red" x1="0%" y1="0%" x2="100%" y2="100%">
      <stop offset="0%" stop-color="#FF3D00"/>
      <stop offset="100%" stop-color="#DD2C00"/>
    </linearGradient>
  </defs>
  <path fill="url(#gp-blue)" d="M49.2,28.6C44.7,33.4,42,40.7,42,50.7v410.6c0,10,2.7,17.3,7.2,22.1l1.2,1.1L279.7,255.2V254L50.4,27.5L49.2,28.6z"/>
  <path fill="url(#gp-green)" d="M358.8,334.3L279.7,255.2L50.4,484.5c7.7,8.2,20.4,9.2,34.7,1.1l273.7-151.3"/>
  <path fill="url(#gp-orange)" d="M358.8,177.7L85.1,26.4C70.8,18.3,58.1,19.3,50.4,27.5l229.3,227.7l79.1-77.5z"/>
  <path fill="url(#gp-red)" d="M358.8,177.7l78.7,43.5c18.3,10.1,18.3,26.7,0,36.8l-78.7,43.5l-79.1-77.5L358.8,177.7z"/>
</svg>
